<?xml version="1.0" encoding="UTF-8" standalone="no"?>
<svg
   xmlns:dc="http://purl.org/dc/elements/1.1/"
   xmlns:cc="http://creativecommons.org/ns#"
   xmlns:rdf="http://www.w3.org/1999/02/22-rdf-syntax-ns#"
   xmlns:svg="http://www.w3.org/2000/svg"
   xmlns="http://www.w3.org/2000/svg"
   xmlns:sodipodi="http://sodipodi.sourceforge.net/DTD/sodipodi-0.dtd"
   xmlns:inkscape="http://www.inkscape.org/namespaces/inkscape"
   version="1.1"
   width="1236"
   height="1004"
   id="svg1054"
   sodipodi:docname="View Personal Schedule Diagram.svg"
   inkscape:version="1.0.1 (3bc2e813f5, 2020-09-07)">
  <metadata
     id="metadata1058">
    <rdf:RDF>
      <cc:Work
         rdf:about="">
        <dc:format>image/svg+xml</dc:format>
        <dc:type
           rdf:resource="http://purl.org/dc/dcmitype/StillImage" />
      </cc:Work>
    </rdf:RDF>
  </metadata>
  <sodipodi:namedview
     pagecolor="#ffffff"
     bordercolor="#666666"
     borderopacity="1"
     objecttolerance="10"
     gridtolerance="10"
     guidetolerance="10"
     inkscape:pageopacity="0"
     inkscape:pageshadow="2"
     inkscape:window-width="1920"
     inkscape:window-height="1017"
     id="namedview1056"
     showgrid="false"
     inkscape:zoom="0.84661355"
     inkscape:cx="618"
     inkscape:cy="407.50588"
     inkscape:window-x="1912"
     inkscape:window-y="-8"
     inkscape:window-maximized="1"
     inkscape:current-layer="g1052" />
  <defs
     id="defs2" />
  <g
     id="g1052">
    <g
       transform="translate(-110,-6)"
       id="g482">
      <path
         fill="none"
         stroke="#000000"
         d="m 120,16 h 712 v 984 H 120 V 16"
         stroke-miterlimit="10"
         id="path480" />
    </g>
    <g
       transform="translate(-110,-6)"
       id="g486">
      <path
         fill="#ffffff"
         stroke="none"
         d="m 120,16 v 22 h 210.16211 l 11,-11 V 16 H 120"
         id="path484" />
    </g>
    <g
       transform="translate(-110,-6)"
       id="g490">
      <path
         fill="none"
         stroke="#000000"
         d="m 120,16 v 22 h 210.16211 l 11,-11 V 16 H 120 v 0"
         stroke-miterlimit="10"
         id="path488" />
    </g>
    <g
       transform="translate(-110,-6)"
       id="g498">
      <g
         id="g496">
        <path
           fill="none"
           stroke="none"
           id="path492"
           d="" />
        <text
           fill="#000000"
           stroke="none"
           font-family="Arial"
           font-size="13px"
           font-style="normal"
           font-weight="normal"
           text-decoration="none"
           x="183.03174"
           y="33.5"
           id="text494"
           style="text-decoration:none;text-decoration-line:none">View personal schedule*</text>
      </g>
    </g>
    <g
       transform="translate(-110,-6)"
       id="g506">
      <g
         id="g504">
        <path
           fill="none"
           stroke="none"
           id="path500"
           d="" />
        <text
           fill="#000000"
           stroke="none"
           font-family="Arial"
           font-size="13px"
           font-style="normal"
           font-weight="bold"
           text-decoration="none"
           x="125"
           y="33.5"
           id="text502"
           style="text-decoration:none;text-decoration-line:none">use case</text>
      </g>
    </g>
    <g
       transform="translate(-110,-6)"
       id="g510">
      <path
         fill="none"
         stroke="#000000"
         d="m 872,104 h 464 V 776 H 872 V 104"
         stroke-miterlimit="10"
         id="path508" />
    </g>
    <g
       transform="translate(-110,-6)"
       id="g514">
      <path
         fill="#ffffff"
         stroke="none"
         d="m 872,104 v 22 h 115.72168 l 11,-11 V 104 H 872"
         id="path512" />
    </g>
    <g
       transform="translate(-110,-6)"
       id="g518">
      <path
         fill="none"
         stroke="#000000"
         d="m 872,104 v 22 h 115.72168 l 11,-11 V 104 H 872 v 0"
         stroke-miterlimit="10"
         id="path516" />
    </g>
    <g
       transform="translate(-110,-6)"
       id="g526">
      <g
         id="g524">
        <path
           fill="none"
           stroke="none"
           id="path520"
           d="" />
        <text
           fill="#000000"
           stroke="none"
           font-family="Arial"
           font-size="13px"
           font-style="normal"
           font-weight="normal"
           text-decoration="none"
           x="883"
           y="121.5"
           id="text522"
           style="text-decoration:none;text-decoration-line:none">Show shift detail*</text>
      </g>
    </g>
    <g
       transform="translate(-110,-6)"
       id="g534">
      <g
         id="g532">
        <path
           fill="none"
           stroke="none"
           id="path528"
           d="" />
        <text
           fill="#000000"
           stroke="none"
           font-family="Arial"
           font-size="13px"
           font-style="normal"
           font-weight="bold"
           text-decoration="none"
           x="877"
           y="121.5"
           id="text530"
           style="text-decoration:none;text-decoration-line:none" />
      </g>
    </g>
    <g
       transform="translate(-110,-6)"
       id="g538">
      <path
         fill="#c0c0c0"
         stroke="none"
         d="m 476,64.5 c 0,-5.246706 4.25329,-9.5 9.5,-9.5 5.24671,0 9.5,4.253294 9.5,9.5 0,5.246706 -4.25329,9.5 -9.5,9.5 -5.24671,0 -9.5,-4.253294 -9.5,-9.5 z"
         opacity="0.2"
         id="path536" />
    </g>
    <g
       transform="translate(-110,-6)"
       id="g542">
      <path
         fill="#000000"
         stroke="none"
         d="m 469,57.5 c 0,-5.246706 4.25329,-9.5 9.5,-9.5 5.24671,0 9.5,4.253294 9.5,9.5 0,5.246706 -4.25329,9.5 -9.5,9.5 -5.24671,0 -9.5,-4.253294 -9.5,-9.5 z"
         id="path540" />
    </g>
    <g
       transform="translate(-110,-6)"
       id="g546">
      <path
         fill="#c0c0c0"
         stroke="none"
         d="m 415,130 h 141.45801 q 10,0 10,10 v 20 q 0,10 -10,10 H 415 q -10,0 -10,-10 v -20 q 0,-10 10,-10 z"
         opacity="0.2"
         id="path544" />
    </g>
    <g
       transform="translate(-110,-6)"
       id="g550">
      <path
         fill="#ffffff"
         stroke="none"
         d="m 408,123 h 141.45801 q 10,0 10,10 v 20 q 0,10 -10,10 H 408 q -10,0 -10,-10 v -20 q 0,-10 10,-10 z"
         id="path548" />
    </g>
    <g
       transform="translate(-110,-6)"
       id="g554">
      <path
         fill="none"
         stroke="#000000"
         d="m 408,123 h 141.45801 q 10,0 10,10 v 20 q 0,10 -10,10 H 408 q -10,0 -10,-10 v -20 q 0,-10 10,-10 z"
         stroke-miterlimit="10"
         id="path552" />
    </g>
    <g
       transform="translate(-110,-6)"
       id="g562">
      <g
         id="g560">
        <path
           fill="none"
           stroke="none"
           id="path556"
           d="" />
        <text
           fill="#000000"
           stroke="none"
           font-family="Arial"
           font-size="13px"
           font-style="normal"
           font-weight="bold"
           text-decoration="none"
           x="407.55273"
           y="142.5"
           id="text558"
           style="text-decoration:none;text-decoration-line:none">Ask user to select a date</text>
      </g>
    </g>
    <g
       transform="translate(-110,-6)"
       id="g566">
      <path
         fill="#c0c0c0"
         stroke="none"
         d="m 414,226 h 142.87354 q 10,0 10,10 v 20 q 0,10 -10,10 H 414 q -10,0 -10,-10 v -20 q 0,-10 10,-10 z"
         opacity="0.2"
         id="path564" />
    </g>
    <g
       transform="translate(-110,-6)"
       id="g570">
      <path
         fill="#ffffff"
         stroke="none"
         d="m 407,219 h 142.87354 q 10,0 10,10 v 20 q 0,10 -10,10 H 407 q -10,0 -10,-10 v -20 q 0,-10 10,-10 z"
         id="path568" />
    </g>
    <g
       transform="translate(-110,-6)"
       id="g574">
      <path
         fill="none"
         stroke="#000000"
         d="m 407,219 h 142.87354 q 10,0 10,10 v 20 q 0,10 -10,10 H 407 q -10,0 -10,-10 v -20 q 0,-10 10,-10 z"
         stroke-miterlimit="10"
         id="path572" />
    </g>
    <g
       transform="translate(-110,-6)"
       id="g582">
      <g
         id="g580">
        <path
           fill="none"
           stroke="none"
           id="path576"
           d="" />
        <text
           fill="#000000"
           stroke="none"
           font-family="Arial"
           font-size="13px"
           font-style="normal"
           font-weight="bold"
           text-decoration="none"
           x="407.2605"
           y="238.5"
           id="text578"
           style="text-decoration:none;text-decoration-line:none">Show user shift calendar</text>
      </g>
    </g>
    <g
       transform="translate(-110,-6)"
       id="g586">
      <path
         fill="none"
         stroke="#000000"
         d="m 478,68 v 54"
         stroke-miterlimit="10"
         id="path584" />
    </g>
    <g
       transform="translate(-110,-6)"
       id="g590">
      <path
         fill="none"
         stroke="#000000"
         d="M 473.79048,111.83733 478,122 l 4.20952,-10.16267"
         stroke-miterlimit="10"
         id="path588" />
    </g>
    <g
       transform="translate(-110,-6)"
       id="g594">
      <path
         fill="#c0c0c0"
         stroke="none"
         d="m 336,506 h 298 q 3,0 3,3 v -1 q 0,3 -3,3 H 336 q -3,0 -3,-3 v 1 q 0,-3 3,-3 z"
         opacity="0.2"
         id="path592" />
    </g>
    <g
       transform="translate(-110,-6)"
       id="g598">
      <path
         fill="#000000"
         stroke="none"
         d="m 329,499 h 298 q 3,0 3,3 v 0 q 0,3 -3,3 H 329 q -3,0 -3,-3 v 0 q 0,-3 3,-3 z"
         id="path596" />
    </g>
    <g
       transform="translate(-110,-6)"
       id="g602">
      <path
         fill="#ffffff"
         stroke="none"
         d="m 340.40723,575 h 23 l -23,23 h 23 l -23,-23"
         id="path600" />
    </g>
    <g
       transform="translate(-110,-6)"
       id="g606">
      <path
         fill="none"
         stroke="#000000"
         d="m 340.40723,575 h 23 l -23,23 h 23 l -23,-23 v 0"
         stroke-miterlimit="10"
         id="path604" />
    </g>
    <g
       transform="translate(-110,-6)"
       id="g614">
      <g
         id="g612">
        <path
           fill="none"
           stroke="none"
           id="path608"
           d="" />
        <text
           fill="#000000"
           stroke="none"
           font-family="Arial"
           font-size="13px"
           font-style="normal"
           font-weight="bold"
           text-decoration="none"
           x="318.66138"
           y="617.5"
           id="text610"
           style="text-decoration:none;text-decoration-line:none">60 seconds</text>
      </g>
    </g>
    <g
       transform="translate(-110,-6)"
       id="g618">
      <path
         fill="none"
         stroke="#000000"
         d="m 352,504 v 71"
         stroke-miterlimit="10"
         id="path616" />
    </g>
    <g
       transform="translate(-110,-6)"
       id="g622">
      <path
         fill="none"
         stroke="#000000"
         d="M 347.79048,564.83733 352,575 l 4.20952,-10.16267"
         stroke-miterlimit="10"
         id="path620" />
    </g>
    <g
       transform="translate(-110,-6)"
       id="g626">
      <path
         fill="#c0c0c0"
         stroke="none"
         d="M 469,338.5 485.5,322 501,338.5 485.5,354 469,338.5"
         opacity="0.2"
         id="path624" />
    </g>
    <g
       transform="translate(-110,-6)"
       id="g630">
      <path
         fill="#ffffff"
         stroke="none"
         d="m 462,331 16,-16 16,16 -16,16 -16,-16"
         id="path628" />
    </g>
    <g
       transform="translate(-110,-6)"
       id="g634">
      <path
         fill="none"
         stroke="#000000"
         d="m 462,331 16,-16 16,16 -16,16 -16,-16 v 0"
         stroke-miterlimit="10"
         id="path632" />
    </g>
    <g
       transform="translate(-110,-6)"
       id="g638">
      <path
         fill="#c0c0c0"
         stroke="none"
         d="M 461,687.5 485.5,663 509,687.5 485.5,711 461,687.5"
         opacity="0.2"
         id="path636" />
    </g>
    <g
       transform="translate(-110,-6)"
       id="g642">
      <path
         fill="#ffffff"
         stroke="none"
         d="m 454,680 24,-24 24,24 -24,24 -24,-24"
         id="path640" />
    </g>
    <g
       transform="translate(-110,-6)"
       id="g646">
      <path
         fill="none"
         stroke="#000000"
         d="m 454,680 24,-24 24,24 -24,24 -24,-24 v 0"
         stroke-miterlimit="10"
         id="path644" />
    </g>
    <g
       transform="translate(-110,-6)"
       id="g650">
      <path
         fill="none"
         stroke="#000000"
         d="m 352,623 v 57 h 102"
         stroke-miterlimit="10"
         id="path648" />
    </g>
    <g
       transform="translate(-110,-6)"
       id="g654">
      <path
         fill="none"
         stroke="#000000"
         d="M 443.83733,684.20952 454,680 443.83733,675.79048"
         stroke-miterlimit="10"
         id="path652" />
    </g>
    <g
       transform="translate(-110,-6)"
       id="g658">
      <path
         fill="#c0c0c0"
         stroke="none"
         d="m 537,586 h 142.16895 q 10,0 10,10 v 20 q 0,10 -10,10 H 537 q -10,0 -10,-10 v -20 q 0,-10 10,-10 z"
         opacity="0.2"
         id="path656" />
    </g>
    <g
       transform="translate(-110,-6)"
       id="g662">
      <path
         fill="#ffffff"
         stroke="none"
         d="m 530,579 h 142.16895 q 10,0 10,10 v 20 q 0,10 -10,10 H 530 q -10,0 -10,-10 v -20 q 0,-10 10,-10 z"
         id="path660" />
    </g>
    <g
       transform="translate(-110,-6)"
       id="g666">
      <path
         fill="none"
         stroke="#000000"
         d="m 530,579 h 142.16895 q 10,0 10,10 v 20 q 0,10 -10,10 H 530 q -10,0 -10,-10 v -20 q 0,-10 10,-10 z"
         stroke-miterlimit="10"
         id="path664" />
    </g>
    <g
       transform="translate(-110,-6)"
       id="g674">
      <g
         id="g672">
        <path
           fill="none"
           stroke="none"
           id="path668"
           d="" />
        <text
           fill="#000000"
           stroke="none"
           font-family="Arial"
           font-size="13px"
           font-style="normal"
           font-weight="bold"
           text-decoration="none"
           x="530.63818"
           y="598.5"
           id="text670"
           style="text-decoration:none;text-decoration-line:none">Ask user to select a shift</text>
      </g>
    </g>
    <g
       transform="translate(-110,-6)"
       id="g678">
      <path
         fill="#c0c0c0"
         stroke="none"
         d="m 425,410 h 121.19629 q 10,0 10,10 v 20 q 0,10 -10,10 H 425 q -10,0 -10,-10 v -20 q 0,-10 10,-10 z"
         opacity="0.2"
         id="path676" />
    </g>
    <g
       transform="translate(-110,-6)"
       id="g682">
      <path
         fill="#ffffff"
         stroke="none"
         d="m 418,403 h 121.19629 q 10,0 10,10 v 20 q 0,10 -10,10 H 418 q -10,0 -10,-10 v -20 q 0,-10 10,-10 z"
         id="path680" />
    </g>
    <g
       transform="translate(-110,-6)"
       id="g686">
      <path
         fill="none"
         stroke="#000000"
         d="m 418,403 h 121.19629 q 10,0 10,10 v 20 q 0,10 -10,10 H 418 q -10,0 -10,-10 v -20 q 0,-10 10,-10 z"
         stroke-miterlimit="10"
         id="path684" />
    </g>
    <g
       transform="translate(-110,-6)"
       id="g694">
      <g
         id="g692">
        <path
           fill="none"
           stroke="none"
           id="path688"
           d="" />
        <text
           fill="#000000"
           stroke="none"
           font-family="Arial"
           font-size="13px"
           font-style="normal"
           font-weight="bold"
           text-decoration="none"
           x="417.17188"
           y="422.5"
           id="text690"
           style="text-decoration:none;text-decoration-line:none">Update shift calendar</text>
      </g>
    </g>
    <g
       transform="translate(-110,-6)"
       id="g698">
      <path
         fill="none"
         stroke="#000000"
         d="m 478,164 v 54"
         stroke-miterlimit="10"
         id="path696" />
    </g>
    <g
       transform="translate(-110,-6)"
       id="g702">
      <path
         fill="none"
         stroke="#000000"
         d="M 473.79048,207.83733 478,218 l 4.20952,-10.16267"
         stroke-miterlimit="10"
         id="path700" />
    </g>
    <g
       transform="translate(-110,-6)"
       id="g706">
      <path
         fill="none"
         stroke="#000000"
         d="m 478,260 v 54"
         stroke-miterlimit="10"
         id="path704" />
    </g>
    <g
       transform="translate(-110,-6)"
       id="g710">
      <path
         fill="none"
         stroke="#000000"
         d="M 473.79048,303.83733 478,314 l 4.20952,-10.16267"
         stroke-miterlimit="10"
         id="path708" />
    </g>
    <g
       transform="translate(-110,-6)"
       id="g714">
      <path
         fill="none"
         stroke="#000000"
         d="m 478,348 v 54"
         stroke-miterlimit="10"
         id="path712" />
    </g>
    <g
       transform="translate(-110,-6)"
       id="g718">
      <path
         fill="none"
         stroke="#000000"
         d="M 473.79048,391.83733 478,402 l 4.20952,-10.16267"
         stroke-miterlimit="10"
         id="path716" />
    </g>
    <g
       transform="translate(-110,-6)"
       id="g722">
      <path
         fill="none"
         stroke="#000000"
         d="m 478,444 v 54"
         stroke-miterlimit="10"
         id="path720" />
    </g>
    <g
       transform="translate(-110,-6)"
       id="g726">
      <path
         fill="none"
         stroke="#000000"
         d="M 473.79048,487.83733 478,498 l 4.20952,-10.16267"
         stroke-miterlimit="10"
         id="path724" />
    </g>
    <g
       transform="translate(-110,-6)"
       id="g730">
      <path
         fill="none"
         stroke="#000000"
         d="m 608,504 v 75"
         stroke-miterlimit="10"
         id="path728" />
    </g>
    <g
       transform="translate(-110,-6)"
       id="g734">
      <path
         fill="none"
         stroke="#000000"
         d="M 603.79048,568.83733 608,579 l 4.20952,-10.16267"
         stroke-miterlimit="10"
         id="path732" />
    </g>
    <g
       transform="translate(-110,-6)"
       id="g738">
      <path
         fill="none"
         stroke="#000000"
         d="m 608,619 v 61 H 502"
         stroke-miterlimit="10"
         id="path736" />
    </g>
    <g
       transform="translate(-110,-6)"
       id="g742">
      <path
         fill="none"
         stroke="#000000"
         d="M 512.16267,675.79048 502,680 l 10.16267,4.20952"
         stroke-miterlimit="10"
         id="path740" />
    </g>
    <g
       transform="translate(-110,-6)"
       id="g746">
      <path
         fill="#c0c0c0"
         stroke="none"
         d="M 465,787.5 485.5,767 505,787.5 485.5,807 465,787.5"
         opacity="0.2"
         id="path744" />
    </g>
    <g
       transform="translate(-110,-6)"
       id="g750">
      <path
         fill="#ffffff"
         stroke="none"
         d="m 458,780 20,-20 20,20 -20,20 -20,-20"
         id="path748" />
    </g>
    <g
       transform="translate(-110,-6)"
       id="g754">
      <path
         fill="none"
         stroke="#000000"
         d="m 458,780 20,-20 20,20 -20,20 -20,-20 v 0"
         stroke-miterlimit="10"
         id="path752" />
    </g>
    <g
       transform="translate(-110,-6)"
       id="g758">
      <path
         fill="none"
         stroke="#000000"
         d="m 478,705 v 54"
         stroke-miterlimit="10"
         id="path756" />
    </g>
    <g
       transform="translate(-110,-6)"
       id="g762">
      <path
         fill="none"
         stroke="#000000"
         d="M 473.79048,748.83733 478,759 l 4.20952,-10.16267"
         stroke-miterlimit="10"
         id="path760" />
    </g>
    <g
       transform="translate(-110,-6)"
       id="g766">
      <path
         fill="none"
         stroke="#000000"
         d="M 458,784 H 256 V 331 h 206"
         stroke-miterlimit="10"
         id="path764" />
    </g>
    <g
       transform="translate(-110,-6)"
       id="g770">
      <path
         fill="none"
         stroke="#000000"
         d="M 451.83733,335.20952 462,331 451.83733,326.79048"
         stroke-miterlimit="10"
         id="path768" />
    </g>
    <g
       transform="translate(-110,-6)"
       id="g778">
      <g
         id="g776">
        <path
           fill="none"
           stroke="none"
           id="path772"
           d="" />
        <text
           fill="#000000"
           stroke="none"
           font-family="Arial"
           font-size="13px"
           font-style="normal"
           font-weight="normal"
           text-decoration="none"
           x="317.51904"
           y="779.5"
           id="text774"
           style="text-decoration:none;text-decoration-line:none">[timer elapsed]</text>
      </g>
    </g>
    <g
       transform="translate(-110,-6)"
       id="g782">
      <path
         fill="#c0c0c0"
         stroke="none"
         d="m 437,863 h 97.3418 q 10,0 10,10 v 20 q 0,10 -10,10 H 437 q -10,0 -10,-10 v -20 q 0,-10 10,-10 z"
         opacity="0.2"
         id="path780" />
    </g>
    <g
       transform="translate(-110,-6)"
       id="g786">
      <path
         fill="#ffffff"
         stroke="none"
         d="m 430,856 h 97.3418 q 10,0 10,10 v 20 q 0,10 -10,10 H 430 q -10,0 -10,-10 v -20 q 0,-10 10,-10 z"
         id="path784" />
    </g>
    <g
       transform="translate(-110,-6)"
       id="g790">
      <path
         fill="none"
         stroke="#000000"
         d="m 430,856 h 97.3418 q 10,0 10,10 v 20 q 0,10 -10,10 H 430 q -10,0 -10,-10 v -20 q 0,-10 10,-10 z"
         stroke-miterlimit="10"
         id="path788" />
    </g>
    <g
       transform="translate(-110,-6)"
       id="g798">
      <g
         id="g796">
        <path
           fill="none"
           stroke="none"
           id="path792"
           d="" />
        <text
           fill="#000000"
           stroke="none"
           font-family="Arial"
           font-size="13px"
           font-style="normal"
           font-weight="bold"
           text-decoration="none"
           x="428.81006"
           y="875.5"
           id="text794"
           style="text-decoration:none;text-decoration-line:none">Show shift detail*</text>
      </g>
    </g>
    <g
       transform="translate(-110,-6)"
       id="g802">
      <path
         fill="none"
         stroke="#000000"
         d="m 478,801 v 54"
         stroke-miterlimit="10"
         id="path800" />
    </g>
    <g
       transform="translate(-110,-6)"
       id="g806">
      <path
         fill="none"
         stroke="#000000"
         d="M 473.79048,844.83733 478,855 l 4.20952,-10.16267"
         stroke-miterlimit="10"
         id="path804" />
    </g>
    <g
       transform="translate(-110,-6)"
       id="g814">
      <g
         id="g812">
        <path
           fill="none"
           stroke="none"
           id="path808"
           d="" />
        <text
           fill="#000000"
           stroke="none"
           font-family="Arial"
           font-size="13px"
           font-style="normal"
           font-weight="normal"
           text-decoration="none"
           x="480.5"
           y="833.5"
           id="text810"
           style="text-decoration:none;text-decoration-line:none">[else]</text>
      </g>
    </g>
    <g
       transform="translate(-110,-6)"
       id="g818">
      <path
         fill="#c0c0c0"
         stroke="none"
         d="m 473,971.5 c 0,-6.90356 5.59644,-12.5 12.5,-12.5 6.90356,0 12.5,5.59644 12.5,12.5 0,6.90356 -5.59644,12.5 -12.5,12.5 -6.90356,0 -12.5,-5.59644 -12.5,-12.5 z"
         opacity="0.2"
         id="path816" />
    </g>
    <g
       transform="translate(-110,-6)"
       id="g822">
      <path
         fill="none"
         stroke="#000000"
         d="m 466,964.5 c 0,-6.90356 5.59644,-12.5 12.5,-12.5 6.90356,0 12.5,5.59644 12.5,12.5 0,6.90356 -5.59644,12.5 -12.5,12.5 -6.90356,0 -12.5,-5.59644 -12.5,-12.5 z"
         stroke-miterlimit="10"
         id="path820" />
    </g>
    <g
       transform="translate(-110,-6)"
       id="g826">
      <path
         fill="#000000"
         stroke="none"
         d="m 471,964.5 c 0,-4.14214 3.35786,-7.5 7.5,-7.5 4.14214,0 7.5,3.35786 7.5,7.5 0,4.14214 -3.35786,7.5 -7.5,7.5 -4.14214,0 -7.5,-3.35786 -7.5,-7.5 z"
         id="path824" />
    </g>
    <g
       transform="translate(-110,-6)"
       id="g830">
      <path
         fill="none"
         stroke="#000000"
         d="m 478,897 v 54"
         stroke-miterlimit="10"
         id="path828" />
    </g>
    <g
       transform="translate(-110,-6)"
       id="g834">
      <path
         fill="none"
         stroke="#000000"
         d="M 473.79048,940.83733 478,951 l 4.20952,-10.16267"
         stroke-miterlimit="10"
         id="path832" />
    </g>
    <g
       transform="translate(-110,-6)"
       id="g838">
      <path
         fill="#c0c0c0"
         stroke="none"
         d="m 1081,152.5 c 0,-5.24671 4.2533,-9.5 9.5,-9.5 5.2467,0 9.5,4.25329 9.5,9.5 0,5.24671 -4.2533,9.5 -9.5,9.5 -5.2467,0 -9.5,-4.25329 -9.5,-9.5 z"
         opacity="0.2"
         id="path836" />
    </g>
    <g
       transform="translate(-110,-6)"
       id="g842">
      <path
         fill="#000000"
         stroke="none"
         d="m 1074,145.5 c 0,-5.24671 4.2533,-9.5 9.5,-9.5 5.2467,0 9.5,4.25329 9.5,9.5 0,5.24671 -4.2533,9.5 -9.5,9.5 -5.2467,0 -9.5,-4.25329 -9.5,-9.5 z"
         id="path840" />
    </g>
    <g
       transform="translate(-110,-6)"
       id="g846">
      <path
         fill="#c0c0c0"
         stroke="none"
         d="M 1070,448.5 1090.5,428 1110,448.5 1090.5,468 1070,448.5"
         opacity="0.2"
         id="path844" />
    </g>
    <g
       transform="translate(-110,-6)"
       id="g850">
      <path
         fill="#ffffff"
         stroke="none"
         d="m 1063,441 20,-20 20,20 -20,20 -20,-20"
         id="path848" />
    </g>
    <g
       transform="translate(-110,-6)"
       id="g854">
      <path
         fill="none"
         stroke="#000000"
         d="m 1063,441 20,-20 20,20 -20,20 -20,-20 v 0"
         stroke-miterlimit="10"
         id="path852" />
    </g>
    <g
       transform="translate(-110,-6)"
       id="g858">
      <path
         fill="#c0c0c0"
         stroke="none"
         d="m 1161,530 h 143.5591 q 10,0 10,10 v 20 q 0,10 -10,10 H 1161 q -10,0 -10,-10 v -20 q 0,-10 10,-10 z"
         opacity="0.2"
         id="path856" />
    </g>
    <g
       transform="translate(-110,-6)"
       id="g862">
      <path
         fill="#ffffff"
         stroke="none"
         d="m 1154,523 h 143.5591 q 10,0 10,10 v 20 q 0,10 -10,10 H 1154 q -10,0 -10,-10 v -20 q 0,-10 10,-10 z"
         id="path860" />
    </g>
    <g
       transform="translate(-110,-6)"
       id="g866">
      <path
         fill="none"
         stroke="#000000"
         d="m 1154,523 h 143.5591 q 10,0 10,10 v 20 q 0,10 -10,10 H 1154 q -10,0 -10,-10 v -20 q 0,-10 10,-10 z"
         stroke-miterlimit="10"
         id="path864" />
    </g>
    <g
       transform="translate(-110,-6)"
       id="g874">
      <g
         id="g872">
        <path
           fill="none"
           stroke="none"
           id="path868"
           d="" />
        <text
           fill="#000000"
           stroke="none"
           font-family="Arial"
           font-size="13px"
           font-style="normal"
           font-weight="bold"
           text-decoration="none"
           x="1156.0537"
           y="542.5"
           id="text870"
           style="text-decoration:none;text-decoration-line:none">Show shift projection list</text>
      </g>
    </g>
    <g
       transform="translate(-110,-6)"
       id="g878">
      <path
         fill="none"
         stroke="#000000"
         d="m 1103,440 h 121 v 83"
         stroke-miterlimit="10"
         id="path876" />
    </g>
    <g
       transform="translate(-110,-6)"
       id="g882">
      <path
         fill="none"
         stroke="#000000"
         d="M 1219.7905,512.83733 1224,523 l 4.2095,-10.16267"
         stroke-miterlimit="10"
         id="path880" />
    </g>
    <g
       transform="translate(-110,-6)"
       id="g890">
      <g
         id="g888">
        <path
           fill="none"
           stroke="none"
           id="path884"
           d="" />
        <text
           fill="#000000"
           stroke="none"
           font-family="Arial"
           font-size="13px"
           font-style="normal"
           font-weight="normal"
           text-decoration="none"
           x="1110.5"
           y="427.5"
           id="text886"
           style="text-decoration:none;text-decoration-line:none">[user is a projectionist]</text>
      </g>
    </g>
    <g
       transform="translate(-110,-6)"
       id="g894">
      <path
         fill="#c0c0c0"
         stroke="none"
         d="M 1070,652.5 1090.5,632 1110,652.5 1090.5,672 1070,652.5"
         opacity="0.2"
         id="path892" />
    </g>
    <g
       transform="translate(-110,-6)"
       id="g898">
      <path
         fill="#ffffff"
         stroke="none"
         d="m 1063,645 20,-20 20,20 -20,20 -20,-20"
         id="path896" />
    </g>
    <g
       transform="translate(-110,-6)"
       id="g902">
      <path
         fill="none"
         stroke="#000000"
         d="m 1063,645 20,-20 20,20 -20,20 -20,-20 v 0"
         stroke-miterlimit="10"
         id="path900" />
    </g>
    <g
       transform="translate(-110,-6)"
       id="g906">
      <path
         fill="none"
         stroke="#000000"
         d="m 1224,563 v 82 h -121"
         stroke-miterlimit="10"
         id="path904" />
    </g>
    <g
       transform="translate(-110,-6)"
       id="g910">
      <path
         fill="none"
         stroke="#000000"
         d="M 1113.1627,640.79048 1103,645 l 10.1627,4.20952"
         stroke-miterlimit="10"
         id="path908" />
    </g>
    <g
       transform="translate(-110,-6)"
       id="g914">
      <path
         fill="none"
         stroke="#000000"
         d="M 1083,462 V 624"
         stroke-miterlimit="10"
         id="path912" />
    </g>
    <g
       transform="translate(-110,-6)"
       id="g918">
      <path
         fill="none"
         stroke="#000000"
         d="M 1078.7905,613.83733 1083,624 l 4.2095,-10.16267"
         stroke-miterlimit="10"
         id="path916" />
    </g>
    <g
       transform="translate(-110,-6)"
       id="g926">
      <g
         id="g924">
        <path
           fill="none"
           stroke="none"
           id="path920"
           d="" />
        <text
           fill="#000000"
           stroke="none"
           font-family="Arial"
           font-size="13px"
           font-style="normal"
           font-weight="normal"
           text-decoration="none"
           x="1029.5"
           y="547.5"
           id="text922"
           style="text-decoration:none;text-decoration-line:none">[else]</text>
      </g>
    </g>
    <g
       transform="translate(-110,-6)"
       id="g930">
      <path
         fill="#c0c0c0"
         stroke="none"
         d="m 1078,746.5 c 0,-6.90356 5.5964,-12.5 12.5,-12.5 6.9036,0 12.5,5.59644 12.5,12.5 0,6.90356 -5.5964,12.5 -12.5,12.5 -6.9036,0 -12.5,-5.59644 -12.5,-12.5 z"
         opacity="0.2"
         id="path928" />
    </g>
    <g
       transform="translate(-110,-6)"
       id="g934">
      <path
         fill="none"
         stroke="#000000"
         d="m 1071,739.5 c 0,-6.90356 5.5964,-12.5 12.5,-12.5 6.9036,0 12.5,5.59644 12.5,12.5 0,6.90356 -5.5964,12.5 -12.5,12.5 -6.9036,0 -12.5,-5.59644 -12.5,-12.5 z"
         stroke-miterlimit="10"
         id="path932" />
    </g>
    <g
       transform="translate(-110,-6)"
       id="g938">
      <path
         fill="#000000"
         stroke="none"
         d="m 1076,739.5 c 0,-4.14214 3.3579,-7.5 7.5,-7.5 4.1421,0 7.5,3.35786 7.5,7.5 0,4.14214 -3.3579,7.5 -7.5,7.5 -4.1421,0 -7.5,-3.35786 -7.5,-7.5 z"
         id="path936" />
    </g>
    <g
       transform="translate(-110,-6)"
       id="g942">
      <path
         fill="none"
         stroke="#000000"
         d="m 1083,666 v 60"
         stroke-miterlimit="10"
         id="path940" />
    </g>
    <g
       transform="translate(-110,-6)"
       id="g946">
      <path
         fill="none"
         stroke="#000000"
         d="M 1078.7905,715.83733 1083,726 l 4.2095,-10.16267"
         stroke-miterlimit="10"
         id="path944" />
    </g>
    <g
       transform="translate(-110,-6)"
       id="g950">
      <path
         fill="#c0c0c0"
         stroke="none"
         d="m 945,255 h 142.1245 q 10,0 10,10 v 20 q 0,10 -10,10 H 945 q -10,0 -10,-10 v -20 q 0,-10 10,-10 z"
         opacity="0.2"
         id="path948" />
    </g>
    <g
       transform="translate(-110,-6)"
       id="g954">
      <path
         fill="#ffffff"
         stroke="none"
         d="m 938,248 h 142.1245 q 10,0 10,10 v 20 q 0,10 -10,10 H 938 q -10,0 -10,-10 v -20 q 0,-10 10,-10 z"
         id="path952" />
    </g>
    <g
       transform="translate(-110,-6)"
       id="g958">
      <path
         fill="none"
         stroke="#000000"
         d="m 938,248 h 142.1245 q 10,0 10,10 v 20 q 0,10 -10,10 H 938 q -10,0 -10,-10 v -20 q 0,-10 10,-10 z"
         stroke-miterlimit="10"
         id="path956" />
    </g>
    <g
       transform="translate(-110,-6)"
       id="g966">
      <g
         id="g964">
        <path
           fill="none"
           stroke="none"
           id="path960"
           d="" />
        <text
           fill="#000000"
           stroke="none"
           font-family="Arial"
           font-size="13px"
           font-style="normal"
           font-weight="bold"
           text-decoration="none"
           x="937.88281"
           y="267.5"
           id="text962"
           style="text-decoration:none;text-decoration-line:none">Show shift date and time</text>
      </g>
    </g>
    <g
       transform="translate(-110,-6)"
       id="g970">
      <path
         fill="#c0c0c0"
         stroke="none"
         d="m 1137,254 h 108.1646 q 10,0 10,10 v 20 q 0,10 -10,10 H 1137 q -10,0 -10,-10 v -20 q 0,-10 10,-10 z"
         opacity="0.2"
         id="path968" />
    </g>
    <g
       transform="translate(-110,-6)"
       id="g974">
      <path
         fill="#ffffff"
         stroke="none"
         d="m 1130,247 h 108.1646 q 10,0 10,10 v 20 q 0,10 -10,10 H 1130 q -10,0 -10,-10 v -20 q 0,-10 10,-10 z"
         id="path972" />
    </g>
    <g
       transform="translate(-110,-6)"
       id="g978">
      <path
         fill="none"
         stroke="#000000"
         d="m 1130,247 h 108.1646 q 10,0 10,10 v 20 q 0,10 -10,10 H 1130 q -10,0 -10,-10 v -20 q 0,-10 10,-10 z"
         stroke-miterlimit="10"
         id="path976" />
    </g>
    <g
       transform="translate(-110,-6)"
       id="g986">
      <g
         id="g984">
        <path
           fill="none"
           stroke="none"
           id="path980"
           d="" />
        <text
           fill="#000000"
           stroke="none"
           font-family="Arial"
           font-size="13px"
           font-style="normal"
           font-weight="bold"
           text-decoration="none"
           x="1129.886"
           y="266.5"
           id="text982"
           style="text-decoration:none;text-decoration-line:none">Show shift location</text>
      </g>
    </g>
    <g
       transform="translate(-110,-6)"
       id="g990">
      <path
         fill="#c0c0c0"
         stroke="none"
         d="m 937,207 h 306 q 3,0 3,3 v -1 q 0,3 -3,3 H 937 q -3,0 -3,-3 v 1 q 0,-3 3,-3 z"
         opacity="0.2"
         id="path988" />
    </g>
    <g
       transform="translate(-110,-6)"
       id="g994">
      <path
         fill="#000000"
         stroke="none"
         d="m 930,200 h 306 q 3,0 3,3 v 0 q 0,3 -3,3 H 930 q -3,0 -3,-3 v 0 q 0,-3 3,-3 z"
         id="path992" />
    </g>
    <g
       transform="translate(-110,-6)"
       id="g998">
      <path
         fill="#c0c0c0"
         stroke="none"
         d="m 941,343 h 298 q 3,0 3,3 v -1 q 0,3 -3,3 H 941 q -3,0 -3,-3 v 1 q 0,-3 3,-3 z"
         opacity="0.2"
         id="path996" />
    </g>
    <g
       transform="translate(-110,-6)"
       id="g1002">
      <path
         fill="#000000"
         stroke="none"
         d="m 934,336 h 298 q 3,0 3,3 v 0 q 0,3 -3,3 H 934 q -3,0 -3,-3 v 0 q 0,-3 3,-3 z"
         id="path1000" />
    </g>
    <g
       transform="translate(-110,-6)"
       id="g1006">
      <path
         fill="none"
         stroke="#000000"
         d="m 1083,156 v 43"
         stroke-miterlimit="10"
         id="path1004" />
    </g>
    <g
       transform="translate(-110,-6)"
       id="g1010">
      <path
         fill="none"
         stroke="#000000"
         d="M 1078.7905,188.83733 1083,199 l 4.2095,-10.16267"
         stroke-miterlimit="10"
         id="path1008" />
    </g>
    <g
       transform="translate(-110,-6)"
       id="g1014">
      <path
         fill="none"
         stroke="#000000"
         d="m 1008,205 v 43"
         stroke-miterlimit="10"
         id="path1012" />
    </g>
    <g
       transform="translate(-110,-6)"
       id="g1018">
      <path
         fill="none"
         stroke="#000000"
         d="M 1003.7905,237.83733 1008,248 l 4.2095,-10.16267"
         stroke-miterlimit="10"
         id="path1016" />
    </g>
    <g
       transform="translate(-110,-6)"
       id="g1022">
      <path
         fill="none"
         stroke="#000000"
         d="m 1184,205 v 42"
         stroke-miterlimit="10"
         id="path1020" />
    </g>
    <g
       transform="translate(-110,-6)"
       id="g1026">
      <path
         fill="none"
         stroke="#000000"
         d="M 1179.7905,236.83733 1184,247 l 4.2095,-10.16267"
         stroke-miterlimit="10"
         id="path1024" />
    </g>
    <g
       transform="translate(-110,-6)"
       id="g1030">
      <path
         fill="none"
         stroke="#000000"
         d="m 1008,288 v 48"
         stroke-miterlimit="10"
         id="path1028" />
    </g>
    <g
       transform="translate(-110,-6)"
       id="g1034">
      <path
         fill="none"
         stroke="#000000"
         d="M 1003.7905,325.83733 1008,336 l 4.2095,-10.16267"
         stroke-miterlimit="10"
         id="path1032" />
    </g>
    <g
       transform="translate(-110,-6)"
       id="g1038">
      <path
         fill="none"
         stroke="#000000"
         d="m 1184,287 v 49"
         stroke-miterlimit="10"
         id="path1036" />
    </g>
    <g
       transform="translate(-110,-6)"
       id="g1042">
      <path
         fill="none"
         stroke="#000000"
         d="M 1179.7905,325.83733 1184,336 l 4.2095,-10.16267"
         stroke-miterlimit="10"
         id="path1040" />
    </g>
    <g
       transform="translate(-110,-6)"
       id="g1046">
      <path
         fill="none"
         stroke="#000000"
         d="m 1083,342 v 78"
         stroke-miterlimit="10"
         id="path1044" />
    </g>
    <g
       transform="translate(-110,-6)"
       id="g1050">
      <path
         fill="none"
         stroke="#000000"
         d="M 1078.7905,409.83733 1083,420 l 4.2095,-10.16267"
         stroke-miterlimit="10"
         id="path1048" />
    </g>
  </g>
</svg>
