<?xml version="1.0" encoding="UTF-8" standalone="no"?>
<svg
   xmlns:dc="http://purl.org/dc/elements/1.1/"
   xmlns:cc="http://creativecommons.org/ns#"
   xmlns:rdf="http://www.w3.org/1999/02/22-rdf-syntax-ns#"
   xmlns:svg="http://www.w3.org/2000/svg"
   xmlns="http://www.w3.org/2000/svg"
   xmlns:sodipodi="http://sodipodi.sourceforge.net/DTD/sodipodi-0.dtd"
   xmlns:inkscape="http://www.inkscape.org/namespaces/inkscape"
   version="1.1"
   width="1493"
   height="684"
   id="svg760"
   sodipodi:docname="View Personal Schedule.svg"
   inkscape:version="1.0.1 (3bc2e813f5, 2020-09-07)">
  <metadata
     id="metadata764">
    <rdf:RDF>
      <cc:Work
         rdf:about="">
        <dc:format>image/svg+xml</dc:format>
        <dc:type
           rdf:resource="http://purl.org/dc/dcmitype/StillImage" />
      </cc:Work>
    </rdf:RDF>
  </metadata>
  <sodipodi:namedview
     pagecolor="#ffffff"
     bordercolor="#666666"
     borderopacity="1"
     objecttolerance="10"
     gridtolerance="10"
     guidetolerance="10"
     inkscape:pageopacity="0"
     inkscape:pageshadow="2"
     inkscape:window-width="1920"
     inkscape:window-height="1017"
     id="namedview762"
     showgrid="false"
     inkscape:zoom="1.1319392"
     inkscape:cx="565.85316"
     inkscape:cy="394.25058"
     inkscape:window-x="-8"
     inkscape:window-y="-8"
     inkscape:window-maximized="1"
     inkscape:current-layer="g758" />
  <defs
     id="defs2" />
  <g
     id="g758">
    <g
       transform="translate(-77,-86)"
       id="g374">
      <path
         fill="none"
         stroke="#000000"
         d="M 88,96 H 1560 V 760 H 88 V 96"
         stroke-miterlimit="10"
         id="path372" />
    </g>
    <g
       transform="translate(-77,-86)"
       id="g378">
      <path
         fill="#ffffff"
         stroke="none"
         d="m 88,96 v 22 h 210.16211 l 11,-11 V 96 H 88"
         id="path376" />
    </g>
    <g
       transform="translate(-77,-86)"
       id="g382">
      <path
         fill="none"
         stroke="#000000"
         d="m 88,96 v 22 h 210.16211 l 11,-11 V 96 H 88 v 0"
         stroke-miterlimit="10"
         id="path380" />
    </g>
    <g
       transform="translate(-77,-86)"
       id="g390">
      <g
         id="g388">
        <path
           fill="none"
           stroke="none"
           id="path384"
           d="" />
        <text
           fill="#000000"
           stroke="none"
           font-family="Arial"
           font-size="13px"
           font-style="normal"
           font-weight="normal"
           text-decoration="none"
           x="151.03174"
           y="113.5"
           id="text386"
           style="text-decoration:none;text-decoration-line:none">View personal schedule*</text>
      </g>
    </g>
    <g
       transform="translate(-77,-86)"
       id="g398">
      <g
         id="g396">
        <path
           fill="none"
           stroke="none"
           id="path392"
           d="" />
        <text
           fill="#000000"
           stroke="none"
           font-family="Arial"
           font-size="13px"
           font-style="normal"
           font-weight="bold"
           text-decoration="none"
           x="93"
           y="113.5"
           id="text394"
           style="text-decoration:none;text-decoration-line:none">use case</text>
      </g>
    </g>
    <g
       transform="translate(-77,-86)"
       id="g402">
      <path
         fill="#c0c0c0"
         stroke="none"
         d="m 264,412.5 c 0,-5.24671 4.25329,-9.5 9.5,-9.5 5.24671,0 9.5,4.25329 9.5,9.5 0,5.24671 -4.25329,9.5 -9.5,9.5 -5.24671,0 -9.5,-4.25329 -9.5,-9.5 z"
         opacity="0.2"
         id="path400" />
    </g>
    <g
       transform="translate(-77,-86)"
       id="g406">
      <path
         fill="#000000"
         stroke="none"
         d="m 257,405.5 c 0,-5.24671 4.25329,-9.5 9.5,-9.5 5.24671,0 9.5,4.25329 9.5,9.5 0,5.24671 -4.25329,9.5 -9.5,9.5 -5.24671,0 -9.5,-4.25329 -9.5,-9.5 z"
         id="path404" />
    </g>
    <g
       transform="translate(-77,-86)"
       id="g410">
      <path
         fill="#c0c0c0"
         stroke="none"
         d="m 378,393 h 79.28906 q 10,0 10,10 v 19 q 0,10 -10,10 H 378 q -10,0 -10,-10 v -19 q 0,-10 10,-10 z"
         opacity="0.2"
         id="path408" />
    </g>
    <g
       transform="translate(-77,-86)"
       id="g414">
      <path
         fill="#ffffff"
         stroke="none"
         d="m 371,386 h 79.28906 q 10,0 10,10 v 19 q 0,10 -10,10 H 371 q -10,0 -10,-10 v -19 q 0,-10 10,-10 z"
         id="path412" />
    </g>
    <g
       transform="translate(-77,-86)"
       id="g418">
      <path
         fill="none"
         stroke="#000000"
         d="m 371,386 h 79.28906 q 10,0 10,10 v 19 q 0,10 -10,10 H 371 q -10,0 -10,-10 v -19 q 0,-10 10,-10 z"
         stroke-miterlimit="10"
         id="path416" />
    </g>
    <g
       transform="translate(-77,-86)"
       id="g426">
      <g
         id="g424">
        <path
           fill="none"
           stroke="none"
           id="path420"
           d="" />
        <text
           fill="#000000"
           stroke="none"
           font-family="Arial"
           font-size="13px"
           font-style="normal"
           font-weight="bold"
           text-decoration="none"
           x="367.64233"
           y="405.5"
           id="text422"
           style="text-decoration:none;text-decoration-line:none">On home page</text>
      </g>
    </g>
    <g
       transform="translate(-77,-86)"
       id="g430">
      <path
         fill="none"
         stroke="#000000"
         d="m 277,405 h 83"
         stroke-miterlimit="10"
         id="path428" />
    </g>
    <g
       transform="translate(-77,-86)"
       id="g434">
      <path
         fill="none"
         stroke="#000000"
         d="M 349.83733,409.20952 360,405 349.83733,400.79048"
         stroke-miterlimit="10"
         id="path432" />
    </g>
    <g
       transform="translate(-77,-86)"
       id="g438">
      <path
         fill="#c0c0c0"
         stroke="none"
         d="m 377,195 h 80.72363 q 10,0 10,10 v 19 q 0,10 -10,10 H 377 q -10,0 -10,-10 v -19 q 0,-10 10,-10 z"
         opacity="0.2"
         id="path436" />
    </g>
    <g
       transform="translate(-77,-86)"
       id="g442">
      <path
         fill="#ffffff"
         stroke="none"
         d="m 370,188 h 80.72363 q 10,0 10,10 v 19 q 0,10 -10,10 H 370 q -10,0 -10,-10 v -19 q 0,-10 10,-10 z"
         id="path440" />
    </g>
    <g
       transform="translate(-77,-86)"
       id="g446">
      <path
         fill="none"
         stroke="#000000"
         d="m 370,188 h 80.72363 q 10,0 10,10 v 19 q 0,10 -10,10 H 370 q -10,0 -10,-10 v -19 q 0,-10 10,-10 z"
         stroke-miterlimit="10"
         id="path444" />
    </g>
    <g
       transform="translate(-77,-86)"
       id="g454">
      <g
         id="g452">
        <path
           fill="none"
           stroke="none"
           id="path448"
           d="" />
        <text
           fill="#000000"
           stroke="none"
           font-family="Arial"
           font-size="13px"
           font-style="normal"
           font-weight="bold"
           text-decoration="none"
           x="367.35645"
           y="207.5"
           id="text450"
           style="text-decoration:none;text-decoration-line:none">On login page*</text>
      </g>
    </g>
    <g
       transform="matrix(1.0467556,0,0,1,-113.28233,-86)"
       id="g458">
      <path
         fill="#c0c0c0"
         stroke="none"
         d="m 793,393 h 189.85254 q 10,0 10,10 v 19 q 0,10 -10,10 H 793 q -10,0 -10,-10 v -19 q 0,-10 10,-10 z"
         opacity="0.2"
         id="path456" />
    </g>
    <g
       transform="matrix(1.0467556,0,0,1,-113.28233,-86)"
       id="g462">
      <path
         fill="#ffffff"
         stroke="none"
         d="m 786,386 h 189.85254 q 10,0 10,10 v 19 q 0,10 -10,10 H 786 q -10,0 -10,-10 v -19 q 0,-10 10,-10 z"
         id="path460" />
    </g>
    <g
       transform="matrix(1.0467556,0,0,1,-113.28233,-86)"
       id="g466">
      <path
         fill="none"
         stroke="#000000"
         d="m 786,386 h 189.85254 q 10,0 10,10 v 19 q 0,10 -10,10 H 786 q -10,0 -10,-10 v -19 q 0,-10 10,-10 z"
         stroke-miterlimit="10"
         id="path464" />
    </g>
    <g
       transform="translate(-77,-86)"
       id="g474">
      <g
         id="g472">
        <path
           fill="none"
           stroke="none"
           id="path468"
           d="" />
        <text
           fill="#000000"
           stroke="none"
           font-family="Arial"
           font-size="13px"
           font-style="normal"
           font-weight="bold"
           text-decoration="none"
           x="787.69824"
           y="405.5"
           id="text470"
           style="text-decoration:none;text-decoration-line:none">On shift schedule calendar page</text>
      </g>
    </g>
    <g
       transform="translate(-77,-86)"
       id="g478">
      <path
         fill="#c0c0c0"
         stroke="none"
         d="m 1241.8305,393 h 114.9798 q 10.4885,0 10.4885,10 v 19 q 0,10 -10.4885,10 h -114.9798 q -10.4885,0 -10.4885,-10 v -19 q 0,-10 10.4885,-10 z"
         opacity="0.2"
         id="path476"
         style="stroke-width:1.02413" />
    </g>
    <g
       transform="matrix(1.0488515,0,0,1,-136.79419,-86)"
       id="g482">
      <path
         fill="#ffffff"
         stroke="none"
         d="m 1234,386 h 109.6245 q 10,0 10,10 v 19 q 0,10 -10,10 H 1234 q -10,0 -10,-10 v -19 q 0,-10 10,-10 z"
         id="path480" />
    </g>
    <g
       transform="matrix(1.0488515,0,0,1,-136.79419,-86)"
       id="g486">
      <path
         fill="none"
         stroke="#000000"
         d="m 1234,386 h 109.6245 q 10,0 10,10 v 19 q 0,10 -10,10 H 1234 q -10,0 -10,-10 v -19 q 0,-10 10,-10 z"
         stroke-miterlimit="10"
         id="path484" />
    </g>
    <g
       transform="translate(-77,-86)"
       id="g494">
      <g
         id="g492">
        <path
           fill="none"
           stroke="none"
           id="path488"
           d="" />
        <text
           fill="#000000"
           stroke="none"
           font-family="Arial"
           font-size="13px"
           font-style="normal"
           font-weight="bold"
           text-decoration="none"
           x="1232.8037"
           y="405.5"
           id="text490"
           style="text-decoration:none;text-decoration-line:none">On shift detail page</text>
      </g>
    </g>
    <g
       transform="matrix(1.0391908,0,0,1,-123.6762,-86)"
       id="g498">
      <path
         fill="#c0c0c0"
         stroke="none"
         d="m 1208,195 h 174.6499 q 10,0 10,10 v 19 q 0,10 -10,10 H 1208 q -10,0 -10,-10 v -19 q 0,-10 10,-10 z"
         opacity="0.2"
         id="path496" />
    </g>
    <g
       transform="matrix(1.0391908,0,0,1,-123.6762,-86)"
       id="g502">
      <path
         fill="#ffffff"
         stroke="none"
         d="m 1201,188 h 174.6499 q 10,0 10,10 v 19 q 0,10 -10,10 H 1201 q -10,0 -10,-10 v -19 q 0,-10 10,-10 z"
         id="path500" />
    </g>
    <g
       transform="matrix(1.0391908,0,0,1,-123.6762,-86)"
       id="g506">
      <path
         fill="none"
         stroke="#000000"
         d="m 1201,188 h 174.6499 q 10,0 10,10 v 19 q 0,10 -10,10 H 1201 q -10,0 -10,-10 v -19 q 0,-10 10,-10 z"
         stroke-miterlimit="10"
         id="path504" />
    </g>
    <g
       transform="translate(-77,-86)"
       id="g514">
      <g
         id="g512">
        <path
           fill="none"
           stroke="none"
           id="path508"
           d="" />
        <text
           fill="#000000"
           stroke="none"
           font-family="Arial"
           font-size="13px"
           font-style="normal"
           font-weight="bold"
           text-decoration="none"
           x="1205.5737"
           y="207.5"
           id="text510"
           style="text-decoration:none;text-decoration-line:none">On projection schedule page</text>
      </g>
    </g>
    <g
       transform="translate(-77,-86)"
       id="g518">
      <path
         fill="#c0c0c0"
         stroke="none"
         d="m 1283,654.5 c 0,-6.90356 5.5964,-12.5 12.5,-12.5 6.9036,0 12.5,5.59644 12.5,12.5 0,6.90356 -5.5964,12.5 -12.5,12.5 -6.9036,0 -12.5,-5.59644 -12.5,-12.5 z"
         opacity="0.2"
         id="path516" />
    </g>
    <g
       transform="translate(-77,-86)"
       id="g522">
      <path
         fill="none"
         stroke="#000000"
         d="m 1276,647.5 c 0,-6.90356 5.5964,-12.5 12.5,-12.5 6.9036,0 12.5,5.59644 12.5,12.5 0,6.90356 -5.5964,12.5 -12.5,12.5 -6.9036,0 -12.5,-5.59644 -12.5,-12.5 z"
         stroke-miterlimit="10"
         id="path520" />
    </g>
    <g
       transform="translate(-77,-86)"
       id="g526">
      <path
         fill="#000000"
         stroke="none"
         d="m 1281,647.5 c 0,-4.14214 3.3579,-7.5 7.5,-7.5 4.1421,0 7.5,3.35786 7.5,7.5 0,4.14214 -3.3579,7.5 -7.5,7.5 -4.1421,0 -7.5,-3.35786 -7.5,-7.5 z"
         id="path524" />
    </g>
    <g
       transform="matrix(0.96076468,0,0,1,-28.975969,-86)"
       id="g530">
      <path
         fill="none"
         stroke="#000000"
         d="m 986,392 h 238"
         stroke-miterlimit="10"
         id="path528" />
    </g>
    <g
       transform="translate(-77,-86)"
       id="g534">
      <path
         fill="none"
         stroke="#000000"
         d="M 1213.8373,396.20952 1224,392 l -10.1627,-4.20952"
         stroke-miterlimit="10"
         id="path532" />
    </g>
    <g
       transform="translate(-77,-86)"
       id="g544">
      <g
         id="g542">
        <path
           fill="none"
           stroke="none"
           id="path536"
           d="" />
        <text
           fill="#000000"
           stroke="none"
           font-family="Arial"
           font-size="13px"
           font-style="normal"
           font-weight="normal"
           text-decoration="none"
           x="983.4165"
           y="371.5"
           id="text538"
           style="text-decoration:none;text-decoration-line:none">click [button IS showShiftDetailButton] /</text>
        <text
           fill="#000000"
           stroke="none"
           font-family="Arial"
           font-size="13px"
           font-style="normal"
           font-weight="normal"
           text-decoration="none"
           x="1053.1392"
           y="384.5"
           id="text540"
           style="text-decoration:none;text-decoration-line:none">load shift detail</text>
      </g>
    </g>
    <g
       transform="translate(-77,-86)"
       id="g548">
      <path
         fill="none"
         stroke="#000000"
         d="M 1328,386 V 227"
         stroke-miterlimit="10"
         id="path546" />
    </g>
    <g
       transform="translate(-77,-86)"
       id="g552">
      <path
         fill="none"
         stroke="#000000"
         d="M 1332.2095,237.16267 1328,227 l -4.2095,10.16267"
         stroke-miterlimit="10"
         id="path550" />
    </g>
    <g
       transform="translate(-77,-86)"
       id="g568">
      <g
         id="g566">
        <path
           fill="none"
           stroke="none"
           id="path554"
           d="" />
        <text
           fill="#000000"
           stroke="none"
           font-family="Arial"
           font-size="13px"
           font-style="normal"
           font-weight="normal"
           text-decoration="none"
           x="1394.1204"
           y="274.5"
           id="text556"
           style="text-decoration:none;text-decoration-line:none">click [button IS</text>
        <text
           fill="#000000"
           stroke="none"
           font-family="Arial"
           font-size="13px"
           font-style="normal"
           font-weight="normal"
           text-decoration="none"
           x="1334.5"
           y="287.5"
           id="text558"
           style="text-decoration:none;text-decoration-line:none">showMyProjectionsScheduleButton</text>
        <text
           fill="#000000"
           stroke="none"
           font-family="Arial"
           font-size="13px"
           font-style="normal"
           font-weight="normal"
           text-decoration="none"
           x="1356.5549"
           y="300.5"
           id="text560"
           style="text-decoration:none;text-decoration-line:none">AND user HAS projectionist</text>
        <text
           fill="#000000"
           stroke="none"
           font-family="Arial"
           font-size="13px"
           font-style="normal"
           font-weight="normal"
           text-decoration="none"
           x="1359.4304"
           y="313.5"
           id="text562"
           style="text-decoration:none;text-decoration-line:none">privileges] / load projection</text>
        <text
           fill="#000000"
           stroke="none"
           font-family="Arial"
           font-size="13px"
           font-style="normal"
           font-weight="normal"
           text-decoration="none"
           x="1400.6204"
           y="326.5"
           id="text564"
           style="text-decoration:none;text-decoration-line:none">schedule list</text>
      </g>
    </g>
    <g
       transform="translate(-77,-86)"
       id="g572">
      <path
         fill="none"
         stroke="#000000"
         d="M 1248,227 V 386"
         stroke-miterlimit="10"
         id="path570" />
    </g>
    <g
       transform="translate(-77,-86)"
       id="g576">
      <path
         fill="none"
         stroke="#000000"
         d="M 1243.7905,375.83733 1248,386 l 4.2095,-10.16267"
         stroke-miterlimit="10"
         id="path574" />
    </g>
    <g
       transform="translate(-77,-86)"
       id="g584">
      <g
         id="g582">
        <path
           fill="none"
           stroke="none"
           id="path578"
           d="" />
        <text
           fill="#000000"
           stroke="none"
           font-family="Arial"
           font-size="13px"
           font-style="normal"
           font-weight="normal"
           text-decoration="none"
           x="1049.3145"
           y="299.5"
           id="text580"
           style="text-decoration:none;text-decoration-line:none">click [button IS backButton] / NOP</text>
      </g>
    </g>
    <g
       transform="matrix(0.95472337,0,0,1,-21.58141,-86)"
       id="g588">
      <path
         fill="none"
         stroke="#000000"
         d="M 1224,416 H 986"
         stroke-miterlimit="10"
         id="path586" />
    </g>
    <g
       transform="translate(-66.224163,-86)"
       id="g592">
      <path
         fill="none"
         stroke="#000000"
         d="M 996.16267,411.79048 986,416 l 10.16267,4.20952"
         stroke-miterlimit="10"
         id="path590" />
    </g>
    <g
       transform="translate(-77,-86)"
       id="g600">
      <g
         id="g598">
        <path
           fill="none"
           stroke="none"
           id="path594"
           d="" />
        <text
           fill="#000000"
           stroke="none"
           font-family="Arial"
           font-size="13px"
           font-style="normal"
           font-weight="normal"
           text-decoration="none"
           x="996.81445"
           y="437.5"
           id="text596"
           style="text-decoration:none;text-decoration-line:none">click [button IS backButton] / NOP</text>
      </g>
    </g>
    <g
       transform="translate(-77,-86)"
       id="g604">
      <path
         fill="#c0c0c0"
         stroke="none"
         d="m 845,635 h 85.80811 q 10,0 10,10 v 19 q 0,10 -10,10 H 845 q -10,0 -10,-10 v -19 q 0,-10 10,-10 z"
         opacity="0.2"
         id="path602" />
    </g>
    <g
       transform="translate(-77,-86)"
       id="g608">
      <path
         fill="#ffffff"
         stroke="none"
         d="m 838,628 h 85.80811 q 10,0 10,10 v 19 q 0,10 -10,10 H 838 q -10,0 -10,-10 v -19 q 0,-10 10,-10 z"
         id="path606" />
    </g>
    <g
       transform="translate(-77,-86)"
       id="g612">
      <path
         fill="none"
         stroke="#000000"
         d="m 838,628 h 85.80811 q 10,0 10,10 v 19 q 0,10 -10,10 H 838 q -10,0 -10,-10 v -19 q 0,-10 10,-10 z"
         stroke-miterlimit="10"
         id="path610" />
    </g>
    <g
       transform="translate(-77,-86)"
       id="g620">
      <g
         id="g618">
        <path
           fill="none"
           stroke="none"
           id="path614"
           d="" />
        <text
           fill="#000000"
           stroke="none"
           font-family="Arial"
           font-size="13px"
           font-style="normal"
           font-weight="bold"
           text-decoration="none"
           x="837.91138"
           y="647.5"
           id="text616"
           style="text-decoration:none;text-decoration-line:none">On exit section</text>
      </g>
    </g>
    <g
       transform="translate(-77,-86)"
       id="g624">
      <path
         fill="none"
         stroke="#000000"
         d="M 880,426 V 627"
         stroke-miterlimit="10"
         id="path622" />
    </g>
    <g
       transform="translate(-77,-86)"
       id="g628">
      <path
         fill="none"
         stroke="#000000"
         d="M 875.79048,616.83733 880,627 l 4.20952,-10.16267"
         stroke-miterlimit="10"
         id="path626" />
    </g>
    <g
       transform="translate(-77,-86)"
       id="g636">
      <g
         id="g634">
        <path
           fill="none"
           stroke="none"
           id="path630"
           d="" />
        <text
           fill="#000000"
           stroke="none"
           font-family="Arial"
           font-size="13px"
           font-style="normal"
           font-weight="normal"
           text-decoration="none"
           x="677.70874"
           y="527.5"
           id="text632"
           style="text-decoration:none;text-decoration-line:none">click [button IS exitButton] / NOP</text>
      </g>
    </g>
    <g
       transform="translate(-77,-86)"
       id="g640">
      <path
         fill="none"
         stroke="#000000"
         d="m 935,647 h 340"
         stroke-miterlimit="10"
         id="path638" />
    </g>
    <g
       transform="translate(-77,-86)"
       id="g644">
      <path
         fill="none"
         stroke="#000000"
         d="M 1264.8373,651.20952 1275,647 l -10.1627,-4.20952"
         stroke-miterlimit="10"
         id="path642" />
    </g>
    <g
       transform="translate(-77,-86)"
       id="g648">
      <path
         fill="none"
         stroke="#000000"
         d="M 960,386 V 328 H 808 v 58"
         stroke-miterlimit="10"
         id="path646" />
    </g>
    <g
       transform="translate(-77,-86)"
       id="g652">
      <path
         fill="none"
         stroke="#000000"
         d="M 803.79048,375.83733 808,386 l 4.20952,-10.16267"
         stroke-miterlimit="10"
         id="path650" />
    </g>
    <g
       transform="translate(-77,-86)"
       id="g660">
      <g
         id="g658">
        <path
           fill="none"
           stroke="none"
           id="path654"
           d="" />
        <text
           fill="#000000"
           stroke="none"
           font-family="Arial"
           font-size="13px"
           font-style="normal"
           font-weight="normal"
           text-decoration="none"
           x="758.1665"
           y="313.5"
           id="text656"
           style="text-decoration:none;text-decoration-line:none">timer expired / update employee shift list</text>
      </g>
    </g>
    <g
       transform="translate(-77,-86)"
       id="g664">
      <path
         fill="#ffffff"
         stroke="none"
         d="m 372,616 h 77.83545 q 10,0 10,10 v 43 q 0,10 -10,10 H 372 q -10,0 -10,-10 v -43 q 0,-10 10,-10 z"
         id="path662" />
    </g>
    <g
       transform="matrix(1.0291508,0,0,1,-87.552591,-86)"
       id="g668">
      <path
         fill="none"
         stroke="#000000"
         d="m 372,616 h 77.83545 q 10,0 10,10 v 43 q 0,10 -10,10 H 372 q -10,0 -10,-10 v -43 q 0,-10 10,-10 z"
         stroke-miterlimit="10"
         id="path666" />
    </g>
    <g
       transform="translate(-77,-86)"
       id="g682">
      <g
         id="g680">
        <path
           fill="none"
           stroke="none"
           id="path670"
           d="" />
        <text
           fill="#000000"
           stroke="none"
           font-family="Arial"
           font-size="13px"
           font-style="normal"
           font-weight="bold"
           text-decoration="none"
           x="402.24683"
           y="635.5"
           id="text672"
           style="text-decoration:none;text-decoration-line:none">On</text>
        <text
           fill="#000000"
           stroke="none"
           font-family="Arial"
           font-size="13px"
           font-style="normal"
           font-weight="bold"
           text-decoration="none"
           x="370.44189"
           y="648.5"
           id="text674"
           style="text-decoration:none;text-decoration-line:none">authentication</text>
        <text
           fill="#000000"
           stroke="none"
           font-family="Arial"
           font-size="13px"
           font-style="normal"
           font-weight="bold"
           text-decoration="none"
           x="383.46094"
           y="661.5"
           id="text676"
           style="text-decoration:none;text-decoration-line:none">privileges</text>
        <text
           fill="#000000"
           stroke="none"
           font-family="Arial"
           font-size="13px"
           font-style="normal"
           font-weight="bold"
           text-decoration="none"
           x="380.92822"
           y="674.5"
           id="text678"
           style="text-decoration:none;text-decoration-line:none">error page</text>
      </g>
    </g>
    <g
       transform="matrix(0.99624454,0,0,1,-73.894229,-86)"
       id="g686">
      <path
         fill="none"
         stroke="#000000"
         d="M 461,647 H 827"
         stroke-miterlimit="10"
         id="path684" />
    </g>
    <g
       transform="translate(-77,-86)"
       id="g690">
      <path
         fill="none"
         stroke="#000000"
         d="M 816.83733,651.20952 827,647 816.83733,642.79048"
         stroke-miterlimit="10"
         id="path688" />
    </g>
    <g
       transform="translate(-77,-86)"
       id="g698">
      <g
         id="g696">
        <path
           fill="none"
           stroke="none"
           id="path692"
           d="" />
        <text
           fill="#000000"
           stroke="none"
           font-family="Arial"
           font-size="13px"
           font-style="normal"
           font-weight="normal"
           text-decoration="none"
           x="542.81445"
           y="643.5"
           id="text694"
           style="text-decoration:none;text-decoration-line:none">click [button IS exitButton] / NOP</text>
      </g>
    </g>
    <g
       transform="translate(-77,-86)"
       id="g702">
      <path
         fill="none"
         stroke="#000000"
         d="M 410,385 V 228"
         stroke-miterlimit="10"
         id="path700" />
    </g>
    <g
       transform="translate(-77,-86)"
       id="g706">
      <path
         fill="none"
         stroke="#000000"
         d="M 414.20952,238.16267 410,228 l -4.20952,10.16267"
         stroke-miterlimit="10"
         id="path704" />
    </g>
    <g
       transform="translate(-77,-86)"
       id="g716">
      <g
         id="g714">
        <path
           fill="none"
           stroke="none"
           id="path708"
           d="" />
        <text
           fill="#000000"
           stroke="none"
           font-family="Arial"
           font-size="13px"
           font-style="normal"
           font-weight="normal"
           text-decoration="none"
           x="100.89551"
           y="303.5"
           id="text710"
           style="text-decoration:none;text-decoration-line:none">click [button IS ViewPersonalScheduleButton AND</text>
        <text
           fill="#000000"
           stroke="none"
           font-family="Arial"
           font-size="13px"
           font-style="normal"
           font-weight="normal"
           text-decoration="none"
           x="147.75708"
           y="316.5"
           id="text712"
           style="text-decoration:none;text-decoration-line:none">user IS NOT authenticated] / NOP</text>
      </g>
    </g>
    <g
       transform="translate(-77,-86)"
       id="g720">
      <path
         fill="none"
         stroke="#000000"
         d="M 410,426 V 615"
         stroke-miterlimit="10"
         id="path718" />
    </g>
    <g
       transform="translate(-77,-86)"
       id="g724">
      <path
         fill="none"
         stroke="#000000"
         d="M 405.79048,604.83733 410,615 l 4.20952,-10.16267"
         stroke-miterlimit="10"
         id="path722" />
    </g>
    <g
       transform="translate(-77,-86)"
       id="g736">
      <g
         id="g734">
        <path
           fill="none"
           stroke="none"
           id="path726"
           d="" />
        <text
           fill="#000000"
           stroke="none"
           font-family="Arial"
           font-size="13px"
           font-style="normal"
           font-weight="normal"
           text-decoration="none"
           x="101.37354"
           y="527.5"
           id="text728"
           style="text-decoration:none;text-decoration-line:none">click [button IS ViewPersonalScheduleButton AND</text>
        <text
           fill="#000000"
           stroke="none"
           font-family="Arial"
           font-size="13px"
           font-style="normal"
           font-weight="normal"
           text-decoration="none"
           x="94.403809"
           y="540.5"
           id="text730"
           style="text-decoration:none;text-decoration-line:none">user IS authenticated AND user HAS NOT employee</text>
        <text
           fill="#000000"
           stroke="none"
           font-family="Arial"
           font-size="13px"
           font-style="normal"
           font-weight="normal"
           text-decoration="none"
           x="197.73413"
           y="553.5"
           id="text732"
           style="text-decoration:none;text-decoration-line:none">privileges] / NOP</text>
      </g>
    </g>
    <g
       transform="translate(-77,-86)"
       id="g740">
      <path
         fill="none"
         stroke="#000000"
         d="M 461,405 H 775"
         stroke-miterlimit="10"
         id="path738" />
    </g>
    <g
       transform="translate(-77,-86)"
       id="g744">
      <path
         fill="none"
         stroke="#000000"
         d="M 764.83733,409.20952 775,405 764.83733,400.79048"
         stroke-miterlimit="10"
         id="path742" />
    </g>
    <g
       transform="translate(-77,-86)"
       id="g756">
      <g
         id="g754">
        <path
           fill="none"
           stroke="none"
           id="path746"
           d="" />
        <text
           fill="#000000"
           stroke="none"
           font-family="Arial"
           font-size="13px"
           font-style="normal"
           font-weight="normal"
           text-decoration="none"
           x="472.87354"
           y="372.5"
           id="text748"
           style="text-decoration:none;text-decoration-line:none">click [button IS ViewPersonalScheduleButton AND</text>
        <text
           fill="#000000"
           stroke="none"
           font-family="Arial"
           font-size="13px"
           font-style="normal"
           font-weight="normal"
           text-decoration="none"
           x="481.43018"
           y="385.5"
           id="text750"
           style="text-decoration:none;text-decoration-line:none">user IS authenticated AND user HAS employee</text>
        <text
           fill="#000000"
           stroke="none"
           font-family="Arial"
           font-size="13px"
           font-style="normal"
           font-weight="normal"
           text-decoration="none"
           x="533.10327"
           y="398.5"
           id="text752"
           style="text-decoration:none;text-decoration-line:none">privileges] / load user shift list</text>
      </g>
    </g>
  </g>
</svg>
